:version 1.10
:name ASF
:units
  mass 1
  length 1
  angle deg
:documentation
  ASF file generated by Kaydara
:root
  axis xyz
  order  tx ty tz rx ry rz
  position 0 0 0
  orientation 0 0 0
:bonedata
  begin
    id 1
    name SpineDummy
    direction 0.999998 -0.00179978 1.38929e-006
    length 3.60008
    axis 0 0 0 xyz
  end
  begin
    id 2
    name Spine
    direction 0.964365 0.262802 0.0305839
    length 8.13928
    axis 1.33928 -1.75354 15.2838 xyz
    dof rx ry rz
  end
  begin
    id 3
    name Spine1
    direction 0.811168 0.572065 0.12144
    length 7.14954
    axis 2.2224 -6.9761 35.2157 xyz
    dof rx ry rz
  end
  begin
    id 4
    name Neck
    direction 0 0 0
    length 0
    axis 2.2224 -6.9761 35.2157 xyz
    dof rx ry rz
  end
  begin
    id 5
    name HeadDummy
    direction 0.810939 0.572387 0.121455
    length 3.55534
    axis 2.2224 -6.9761 35.2157 xyz
  end
  begin
    id 6
    name Head
    direction 0.998226 -0.000232542 0.0595419
    length 7.35666
    axis -3.03688 -3.41352 -0.0133467 xyz
    dof rx ry rz
  end
  begin
    id 7
    name R_ClavicleDummy
    direction 0.531669 -0.194489 -0.824319
    length 2.49392
    axis 2.2224 -6.9761 35.2157 xyz
  end
  begin
    id 8
    name R_Clavicle
    direction -0.155119 0.0480802 -0.986725
    length 4.485
    axis -54.2764 80.6538 162.779 xyz
    dof rx ry rz
  end
  begin
    id 9
    name R_UpperArm
    direction -0.955567 0.200068 -0.216484
    length 10.1122
    axis -72.9943 12.5026 168.175 xyz
    dof rx ry rz
  end
  begin
    id 10
    name R_Forearm
    direction -0.61433 0.385743 0.688332
    length 9.39148
    axis -117.015 -43.4982 147.875 xyz
    dof rx ry rz
  end
  begin
    id 11
    name R_Hand
    direction -0.699429 0.0170333 0.714499
    length 3.66324
    axis -45.0303 -36.7097 175.478 xyz
    dof rx ry rz
  end
  begin
    id 12
    name L_ClavicleDummy
    direction 0.40287 -0.36502 0.839319
    length 2.49392
    axis 2.2224 -6.9761 35.2157 xyz
  end
  begin
    id 13
    name L_Clavicle
    direction -0.231271 -0.0726419 0.970174
    length 4.485
    axis 18.4357 -75.9711 -162.563 xyz
    dof rx ry rz
  end
  begin
    id 14
    name L_UpperArm
    direction -0.917494 0.144359 0.370629
    length 10.1122
    axis 56.0417 -21.7544 171.058 xyz
    dof rx ry rz
  end
  begin
    id 15
    name L_Forearm
    direction -0.496786 0.615074 -0.612281
    length 9.39148
    axis 89.8094 37.7546 128.927 xyz
    dof rx ry rz
  end
  begin
    id 16
    name L_Hand
    direction -0.409932 0.64962 -0.640274
    length 3.66324
    axis -0.424369 32.133 128.52 xyz
    dof rx ry rz
  end
  begin
    id 17
    name L_ThighDummy
    direction -1.84081e-006 1.87549e-006 1
    length 3.13049
    axis 0 0 0 xyz
  end
  begin
    id 18
    name L_Thigh
    direction -0.947739 0.307978 0.083308
    length 17.9961
    axis 173.219 -4.77873 161.998 xyz
    dof rx ry rz
  end
  begin
    id 19
    name L_Calf
    direction -0.728814 -0.684427 0.0197583
    length 13.3367
    axis 167.331 -1.13214 -136.799 xyz
    dof rx ry rz
  end
  begin
    id 20
    name L_Foot
    direction -0.9028 0.418719 0.0981191
    length 5.8674
    axis 163.436 11.5135 -155.37 xyz
    dof rx ry rz
  end
  begin
    id 21
    name L_Toe0
    direction -0.35341 0.886259 0.299411
    length 4.75286
    axis 169.316 -17.4222 111.74 xyz
    dof rx ry rz
  end
  begin
    id 22
    name R_ThighDummy
    direction 9.32778e-007 -8.82053e-007 -1
    length 3.13049
    axis 0 0 0 xyz
  end
  begin
    id 23
    name R_Thigh
    direction -0.925064 0.37528 -0.0585023
    length 17.9961
    axis -178.698 3.35385 157.919 xyz
    dof rx ry rz
  end
  begin
    id 24
    name R_Calf
    direction -0.68969 -0.718776 -0.0876886
    length 13.3367
    axis -160.504 5.03065 -133.817 xyz
    dof rx ry rz
  end
  begin
    id 25
    name R_Foot
    direction -0.857405 0.418858 -0.299022
    length 5.8674
    axis -161.328 4.38911 -154.413 xyz
    dof rx ry rz
  end
  begin
    id 26
    name R_Toe0
    direction -0.100745 0.952789 -0.286433
    length 4.75286
    axis 171.683 16.6445 96.0359 xyz
    dof rx ry rz
  end
:hierarchy
  begin
    root SpineDummy L_ThighDummy R_ThighDummy
    SpineDummy Spine
    Spine Spine1
    Spine1 Neck
    Neck HeadDummy R_ClavicleDummy L_ClavicleDummy
    HeadDummy Head
    R_ClavicleDummy R_Clavicle
    R_Clavicle R_UpperArm
    R_UpperArm R_Forearm
    R_Forearm R_Hand
    L_ClavicleDummy L_Clavicle
    L_Clavicle L_UpperArm
    L_UpperArm L_Forearm
    L_Forearm L_Hand
    L_ThighDummy L_Thigh
    L_Thigh L_Calf
    L_Calf L_Foot
    L_Foot L_Toe0
    R_ThighDummy R_Thigh
    R_Thigh R_Calf
    R_Calf R_Foot
    R_Foot R_Toe0
  end

:SAMPLES-PER-SECOND 30
:FULLY-SPECIFIED
:DEGREES
255
root  -0.696181 30.6535 -40.9788 -80.0766 -10.8938 82.0162
Spine  -0.00912572 -4.50125 -7.4605
Spine1  -0.113601 1.80827 11.3671
Neck  3.97569e-016 0 -2.38542e-015
Head  2.8806 -3.34518 12.6245
R_Clavicle  0.423805 -22.2854 0.39906
R_UpperArm  18.3004 -9.17876 35.4852
R_Forearm  31.8344 -29.8141 20.5407
R_Hand  -2.27854 8.94127 -28.3127
L_Clavicle  -0.475025 16.8312 0.230315
L_UpperArm  -10.7309 -0.264757 -0.203877
L_Forearm  -6.55461 17.9589 21.9744
L_Hand  -0.285262 0.497286 -5.29388
L_Thigh  -3.14173 -10.822 -6.49172
L_Calf  3.09441 -0.954979 7.77747
L_Foot  8.6449 14.6771 14.8635
L_Toe0  0.505156 0.0381599 -6.13606
R_Thigh  17.7856 -12.5675 -9.41275
R_Calf  2.09296 -7.08132 -22.6798
R_Foot  1.44789 3.13488 -6.38042
R_Toe0  -1.78853 -0.272788 -17.3235
256
root  -0.846985 31.3349 -42.3556 -82.4865 -10.9001 82.4999
Spine  -1.70424 -5.82785 -9.04972
Spine1  -1.68461 4.40089 8.69681
Neck  3.97569e-016 0 -2.38542e-015
Head  9.02042 -4.71574 17.0907
R_Clavicle  0.422827 -22.2239 0.418655
R_UpperArm  14.6774 -12.1904 39.6716
R_Forearm  35.3554 -26.549 20.6238
R_Hand  -2.29783 8.81544 -28.5209
L_Clavicle  -0.449018 15.8483 0.82407
L_UpperArm  -9.12593 -1.70915 0.58365
L_Forearm  -7.15077 17.2708 21.0335
L_Hand  -0.258567 1.08484 -4.36766
L_Thigh  -4.23157 -9.51788 -11.6312
L_Calf  3.18925 -1.74967 13.5183
L_Foot  8.46697 14.5226 14.5243
L_Toe0  0.491295 0.0363615 -6.14835
R_Thigh  15.7418 -12.6852 -5.76964
R_Calf  -0.537547 -5.25685 -16.6248
R_Foot  1.4837 2.82371 -7.6543
R_Toe0  -1.77144 -0.274182 -17.3548
257
root  -0.963006 31.9607 -43.7042 -84.6157 -11.0341 82.9669
Spine  -3.4274 -6.90727 -10.5983
Spine1  -3.3021 6.89621 7.19566
Neck  3.97569e-016 0 -2.38542e-015
Head  14.3802 -5.85426 20.0028
R_Clavicle  0.41795 -21.9133 0.483226
R_UpperArm  10.8534 -13.5566 43.4745
R_Forearm  36.0094 -22.5125 19.8455
R_Hand  -2.0845 8.54248 -27.0702
L_Clavicle  -0.422528 14.3833 1.1706
L_UpperArm  -7.59477 -3.59591 1.81142
L_Forearm  -8.51482 16.9178 20.5557
L_Hand  -0.303576 1.45608 -4.83591
L_Thigh  -6.29544 -8.14231 -16.9473
L_Calf  4.19957 -2.61645 19.8991
L_Foot  8.13499 14.7445 13.3542
L_Toe0  0.62422 0.0330693 -6.05832
R_Thigh  14.2385 -12.2284 -3.87954
R_Calf  -3.87462 -2.33305 -7.33294
R_Foot  1.41234 2.60614 -7.38599
R_Toe0  -1.91238 -0.261544 -17.0577
258
root  -1.04241 32.3779 -45.0263 -86.7693 -11.0805 83.3473
Spine  -4.86235 -8.36485 -12.4147
Spine1  -4.50693 9.77425 6.91364
Neck  3.97569e-016 0 -2.38542e-015
Head  18.9787 -6.57802 21.3467
R_Clavicle  0.408134 -21.1908 0.641694
R_UpperArm  11.5174 -13.734 46.7206
R_Forearm  33.8659 -19.4581 17.0886
R_Hand  -1.7626 7.85966 -24.8455
L_Clavicle  -0.392886 12.6062 1.27028
L_UpperArm  -6.94291 -5.3013 3.25951
L_Forearm  -9.65548 16.719 20.2877
L_Hand  -0.345466 1.35487 -5.5987
L_Thigh  -8.74711 -6.93757 -21.3538
L_Calf  6.27009 -3.25673 24.5238
L_Foot  7.67046 14.7344 12.0453
L_Toe0  1.14258 0.0183288 -5.32132
R_Thigh  13.0458 -11.5016 -3.31377
R_Calf  -6.4907 1.47018 4.45498
R_Foot  1.25737 1.81887 -7.57693
R_Toe0  -2.82026 -0.19954 -15.8143
259
root  -1.12571 32.6077 -46.2789 -88.8091 -10.8589 83.9805
Spine  -6.14918 -9.84287 -14.1357
Spine1  -5.33502 13.3459 7.10083
Neck  3.97569e-016 0 -2.38542e-015
Head  23.0636 -7.1519 21.5894
R_Clavicle  0.395596 -19.9129 0.894748
R_UpperArm  12.681 -13.3521 49.351
R_Forearm  32.7825 -16.1741 13.9165
R_Hand  -1.42102 6.90313 -22.2545
L_Clavicle  -0.364799 11.2381 1.17358
L_UpperArm  -7.16195 -6.86598 5.262
L_Forearm  -10.115 16.6157 20.1485
L_Hand  -0.349033 1.23394 -5.76388
L_Thigh  -8.69077 -6.2352 -24.9573
L_Calf  6.97353 -3.9663 28.1197
L_Foot  7.43773 14.8243 11.2906
L_Toe0  1.19411 -0.00454904 -4.34623
R_Thigh  12.2383 -10.3925 -3.72947
R_Calf  -7.39596 5.84765 18.3923
R_Foot  1.26333 1.35992 -8.68623
R_Toe0  -3.26741 -0.194282 -16.0684
260
root  -1.22063 32.6227 -47.4402 -90.4962 -10.5048 84.6036
Spine  -7.30943 -11.1323 -15.2741
Spine1  -5.9344 17.007 7.37459
Neck  3.97569e-016 0 -2.38542e-015
Head  26.3725 -7.47598 21.2123
R_Clavicle  0.38702 -18.6747 1.06983
R_UpperArm  13.8717 -12.7275 51.6544
R_Forearm  32.0145 -12.3381 10.4426
R_Hand  -1.1482 6.14609 -19.9061
L_Clavicle  -0.342152 10.3216 1.05345
L_UpperArm  -7.16368 -8.64648 7.38364
L_Forearm  -10.4844 16.8896 20.516
L_Hand  -0.340928 1.41658 -5.47229
L_Thigh  -6.25292 -6.16278 -28.4287
L_Calf  5.30783 -4.78874 31.8466
L_Foot  7.4644 14.1696 12.0106
L_Toe0  1.2956 0.00524839 -4.91351
R_Thigh  11.5521 -9.18452 -4.04476
R_Calf  -6.77383 9.64102 31.58
R_Foot  1.10482 0.696166 -8.69759
R_Toe0  -1.66442 -0.279487 -17.4329
